<?xml version="1.0" encoding="UTF-8"?>
<svg version="1.1" xmlns="http://www.w3.org/2000/svg" width="317" height="314">
<path d="M0 0 C104.61 0 209.22 0 317 0 C317 103.62 317 207.24 317 314 C212.39 314 107.78 314 0 314 C0 210.38 0 106.76 0 0 Z " fill="#ffffffff" transform="translate(0,0)"/>
<path d="M0 0 C1.57054368 1.47062328 3.13336104 2.94955095 4.6875 4.4375 C5.43386719 5.12070312 6.18023437 5.80390625 6.94921875 6.5078125 C28.39678626 26.79504041 39.13376901 54.86791388 43.6875 83.4375 C43.87699219 84.4171875 44.06648437 85.396875 44.26171875 86.40625 C45.23639113 93.34520196 44.81951398 100.44697137 44.6875 107.4375 C44.66236328 109.10232422 44.66236328 109.10232422 44.63671875 110.80078125 C43.94732746 125.98708657 39.24746473 140.82162818 32.6875 154.4375 C28.17148499 154.4375 27.67296994 153.93952287 24.3125 151.25 C10.96792504 141.76223862 -3.3626025 140.6080725 -19.3125 142.4375 C-25.33623024 143.5903838 -30.81868251 145.75540036 -36.3125 148.4375 C-36.9223877 148.73188965 -37.53227539 149.0262793 -38.16064453 149.32958984 C-53.87058452 157.14010972 -69.21994354 169.78945508 -81.3125 182.4375 C-84.70442452 180.92477964 -87.28491983 178.94450272 -90.125 176.5625 C-91.09566406 175.76070312 -92.06632812 174.95890625 -93.06640625 174.1328125 C-94.72909204 172.75414967 -96.38958084 171.37303081 -98.04638672 169.98730469 C-107.00956456 162.51514281 -116.11581589 156.11712571 -126.3125 150.4375 C-127.04726562 150.00824219 -127.78203125 149.57898438 -128.5390625 149.13671875 C-142.13875218 141.64242167 -158.66608724 140.22100928 -173.78125 143.09765625 C-181.11277044 145.5309626 -188.84143541 149.96643541 -194.3125 155.4375 C-196.28515625 155.33984375 -196.28515625 155.33984375 -198.3125 154.4375 C-211.9657047 134.91545507 -213.11486318 101.0840405 -209.43896484 78.62817383 C-208.83871227 75.53387572 -208.1015344 72.48865877 -207.3125 69.4375 C-207.02246094 68.26574219 -206.73242188 67.09398438 -206.43359375 65.88671875 C-201.4217455 47.0346201 -193.28519151 29.14155653 -180.3125 14.4375 C-179.61511719 13.62023437 -178.91773438 12.80296875 -178.19921875 11.9609375 C-157.83039282 -11.41075265 -128.28184226 -29.0201758 -96.8359375 -31.3984375 C-60.46649788 -33.09191473 -27.73301379 -24.4577959 0 0 Z " fill="#0F131C" transform="translate(240.3125,55.5625)"/>
<path d="M0 0 C104.61 0 209.22 0 317 0 C317 103.62 317 207.24 317 314 C212.39 314 107.78 314 0 314 C0 210.38 0 106.76 0 0 Z M67 40 C66.11957031 40.73992188 65.23914063 41.47984375 64.33203125 42.2421875 C35.58992224 67.28569954 16.83923276 103.89399593 14 142 C12.84240806 169.439789 16.77171207 193.0578509 27.32104492 218.31420898 C30.17100632 225.16309804 31.61317555 229.00161561 29.0625 236.25 C24.65922853 250.90200089 26.30342524 264.99105958 33.1875 278.6875 C40.64116339 291.07239801 51.43511023 299.38356171 65 304 C65.87785156 304.35320312 66.75570312 304.70640625 67.66015625 305.0703125 C84.52027301 309.76353799 101.45023929 304.93856956 116.24609375 296.6953125 C126.88664541 290.4516412 136.64101617 282.79051428 145.84375 274.6015625 C146.47651855 274.04259277 147.10928711 273.48362305 147.76123047 272.90771484 C148.97965186 271.82399972 150.1875858 270.72834657 151.38330078 269.61962891 C153.0390625 268.140625 153.0390625 268.140625 156 266 C160.00673368 266.49301886 161.83666075 268.4752428 164.6875 271.25 C175.11083874 280.97565878 186.66471576 289.83556724 199 297 C199.62132812 297.37253906 200.24265625 297.74507813 200.8828125 298.12890625 C215.68313976 306.29791805 231.66031804 308.10642007 248 304 C262.84082539 299.27618058 274.96455237 289.58690478 282.90625 276.171875 C290.171557 261.7450511 290.26084715 248.35128183 286 233 C285.5238945 231.72801666 285.04539988 230.45691946 284.5625 229.1875 C283.94696676 225.69947829 284.12644837 225.28407065 285.74609375 222.36328125 C296.53294322 201.8830181 301.41249384 178.16402578 301.3125 155.1875 C301.31026428 154.20195633 301.31026428 154.20195633 301.3079834 153.19650269 C301.266745 143.06555114 300.59020178 133.79385307 298 124 C297.70996094 122.77152344 297.41992188 121.54304688 297.12109375 120.27734375 C290.39898736 93.07953254 277.39516259 70.09484378 258 50 C257.19949219 49.13632812 256.39898437 48.27265625 255.57421875 47.3828125 C244.80029987 36.06226271 231.73659236 28.22381371 218 21 C217.1028125 20.51789062 216.205625 20.03578125 215.28125 19.5390625 C198.11205193 11.00879637 178.59624768 7.6312022 159.61328125 7.68432617 C157.26775119 7.68747616 154.92349928 7.66398344 152.578125 7.63867188 C121.15117397 7.50723456 90.9122162 19.87361505 67 40 Z " fill="#0E121C" transform="translate(0,0)"/>
<path d="M0 0 C6.23820519 2.82001056 11.97976981 5.95727056 17.0625 10.5625 C19.53612768 12.52685139 20.56496208 13.0061446 23.765625 12.9609375 C26.88027026 12.42585742 29.92578156 11.73007755 33 11 C45.55336686 9.10625725 59.12078821 8.78546509 71.52026367 11.53393555 C79.31543251 13.39942324 79.31543251 13.39942324 86.796875 11.3359375 C90.1007706 9.16564065 93.02111644 6.59051909 96 4 C101.11013232 0.72986413 105.94269611 -1 112 -1 C114.75832106 0.83888071 115.74632941 2.05598084 116.60473633 5.25048828 C117.05123865 8.35642349 117.01024116 11.23168918 116.88671875 14.3671875 C116.85642578 15.58277344 116.82613281 16.79835938 116.79492188 18.05078125 C116.72350902 20.59307887 116.63246824 23.13490353 116.52148438 25.67578125 C116.1915987 33.44019245 116.1915987 33.44019245 119.8125 39.96875 C120.35801514 40.48163574 120.90353027 40.99452148 121.46557617 41.52294922 C123.86802571 43.8355697 124.97635639 46.60697212 126.3125 49.625 C126.80363281 50.71039063 127.29476562 51.79578125 127.80078125 52.9140625 C133.47844938 67.52434858 130.52668763 86.23470925 124.41015625 100.1796875 C122.38066536 104.23866928 119.99156199 107.60147135 117 111 C116.44957031 111.65484375 115.89914063 112.3096875 115.33203125 112.984375 C103.07375043 126.47109761 84.6119632 132.20531174 66.87226868 133.10830688 C64.76598353 133.16251857 62.66163104 133.19061596 60.5546875 133.203125 C59.39527145 133.21167511 59.39527145 133.21167511 58.21243286 133.22039795 C56.58727351 133.22977123 54.96209581 133.23635103 53.33691406 133.24023438 C50.90133921 133.24989552 48.46662624 133.28097409 46.03125 133.3125 C33.15015296 133.40109369 20.54675242 132.32274675 8.6875 126.8125 C7.69278687 126.36185181 7.69278687 126.36185181 6.67797852 125.90209961 C-6.2347874 119.79379717 -15.3392155 109.99648278 -21 97 C-21.33386719 96.26136719 -21.66773437 95.52273437 -22.01171875 94.76171875 C-27.08728436 80.57822118 -27.39017133 62.87647758 -21.58203125 48.93359375 C-19.9827642 45.96803929 -18.17651027 43.41819673 -16.125 40.75 C-13.6299398 37.41427157 -12.55032396 35.61208554 -13.0625 31.4375 C-13.21203125 30.6228125 -13.3615625 29.808125 -13.515625 28.96875 C-14.99890046 19.87770686 -15.38848682 9.78523387 -11.0703125 1.46875 C-8.30593616 -2.32470074 -3.96897821 -1.09131659 0 0 Z " fill="#EBECEC" transform="translate(105,69)"/>
<path d="M0 0 C8.19282574 6.69557422 12.97482631 15.66693487 14.02734375 26.1328125 C14.38529796 36.41325731 10.94415528 46.60113988 4 54.3203125 C-5.35497097 63.0340153 -14.82719784 65.4008557 -27.30859375 65.60546875 C-34.14353324 65.069929 -39.95885775 62.88514348 -46 59.8125 C-46.69536865 59.45953857 -47.3907373 59.10657715 -48.10717773 58.74291992 C-61.46127342 51.7610787 -73.69225766 41.10089075 -84.25 30.375 C-78.16281109 15.48009081 -52.02396977 1.06561574 -38.25 -4.93359375 C-25.58399781 -9.31227029 -11.01651073 -7.40040416 0 0 Z " fill="#0E131C" transform="translate(256.25,221.625)"/>
<path d="M0 0 C13.13437736 7.76828828 24.60830326 17.79040188 35.81542969 28.07373047 C34.86577773 35.93971552 22.88122397 42.95898108 16.94042969 47.69873047 C7.36892631 55.17613987 -2.42611046 61.59919392 -14.18457031 65.07373047 C-14.82910156 65.26580078 -15.47363281 65.45787109 -16.13769531 65.65576172 C-24.05346362 67.27214952 -31.87397809 66.36416036 -39.18457031 63.07373047 C-39.94640625 62.73341797 -40.70824219 62.39310547 -41.49316406 62.04248047 C-50.41481667 57.58917664 -55.75540837 50.81933072 -59.30175781 41.55419922 C-61.5851656 32.55191455 -61.73414542 21.84341491 -57.64550781 13.34716797 C-44.1993026 -7.57714068 -21.30268155 -11.96811208 0 0 Z " fill="#0E131C" transform="translate(106.1845703125,221.92626953125)"/>
<path d="M0 0 C4.22985062 3.03445806 6.83691143 6.92714448 8 12 C8.79639689 19.60461908 8.89317959 26.76359464 4 33 C1.06508951 35.53830096 -0.64154864 35.95519358 -4.5 36.4375 C-8.67362523 35.91579685 -10.12638661 35.03325858 -13 32 C-17.24021612 26.09398469 -17.54469796 17.84270527 -16.75 10.77734375 C-15.76903196 6.79216108 -13.78150514 3.95534921 -11 1 C-7.51490899 -0.7425455 -3.80265093 -0.57336331 0 0 Z " fill="#11141D" transform="translate(128,136)"/>
<path d="M0 0 C3.34420014 2.561515 5.48769317 5.09045571 7 9 C7.79329377 17.52329588 8.20872003 25.82041293 3 33 C0.21602953 35.34439618 -1.40191769 35.92523971 -5 36.375 C-8.48457897 35.93942763 -10.24116669 35.16232881 -13 33 C-17.70148969 26.61940685 -17.88265342 18.66259565 -17 11 C-13.81911702 2.47670739 -9.31250698 -1.62027802 0 0 Z " fill="#10141C" transform="translate(196,136)"/>
</svg>
